<?xml version="1.0" encoding="iso-8859-1"?>
<!-- Generator: Adobe Illustrator 19.0.0, SVG Export Plug-In . SVG Version: 6.00 Build 0)  -->
<svg version="1.1" id="Capa_1" xmlns="http://www.w3.org/2000/svg" xmlns:xlink="http://www.w3.org/1999/xlink" x="0px" y="0px"
	 viewBox="0 0 512 512" style="enable-background:new 0 0 512 512;" xml:space="preserve">
<g>
	<g>
		<path d="M291.105,144.202h-70.211c-8.949,0-16.203,7.253-16.203,16.203v70.751c0,8.949,7.253,16.203,16.203,16.203h70.211
			c8.955,0,16.203-7.253,16.203-16.203v-70.751C307.308,151.456,300.055,144.202,291.105,144.202z M274.903,214.954h-37.806v-38.346
			h37.806V214.954z"/>
	</g>
</g>
<g>
	<g>
		<rect x="293.806" y="185.789" width="140.422" height="32.405"/>
	</g>
</g>
<g>
	<g>
		<rect x="77.772" y="185.789" width="142.582" height="32.405"/>
	</g>
</g>
<g>
	<g>
		<path d="M465.553,153.924c-25.616,0-46.453,20.836-46.453,46.447c0,25.611,20.842,46.447,46.453,46.447
			c24.79,0,45.621-20.604,46.447-46.447C512,174.76,491.169,153.924,465.553,153.924z M465.553,214.413
			c-7.745,0-14.048-6.303-14.048-14.042c0-7.739,6.303-14.042,14.048-14.042c7.745,0,14.042,6.297,14.053,13.524
			C479.346,207.884,473.044,214.413,465.553,214.413z"/>
	</g>
</g>
<g>
	<g>
		<path d="M46.447,153.924C20.836,153.924,0,174.76,0,200.371c0,25.611,20.836,46.447,46.447,46.447
			c25.611,0,46.447-20.836,46.447-46.447C92.895,174.76,72.058,153.924,46.447,153.924z M46.447,214.413
			c-7.739,0-14.042-6.303-14.042-14.042c0-7.739,6.297-14.042,14.042-14.042s14.042,6.303,14.042,14.042
			C60.489,208.111,54.187,214.413,46.447,214.413z"/>
	</g>
</g>
<g>
	<g>
		<path d="M292.272,186.486l-4.494,32.092c73.641,10.305,129.167,74.456,129.167,149.22h32.405
			C449.35,276.971,381.818,199.021,292.272,186.486z"/>
	</g>
</g>
<g>
	<g>
		<path d="M219.728,186.48C130.177,199.021,62.65,276.971,62.65,367.797h32.405c0-74.764,55.531-138.915,129.167-149.225
			L219.728,186.48z"/>
	</g>
</g>
<g>
</g>
<g>
</g>
<g>
</g>
<g>
</g>
<g>
</g>
<g>
</g>
<g>
</g>
<g>
</g>
<g>
</g>
<g>
</g>
<g>
</g>
<g>
</g>
<g>
</g>
<g>
</g>
<g>
</g>
</svg>
